Coordinates
version=1
nRows=8
nColumns=40
inDegrees=yes

Units are S.I. units (second, meters, Newtons, ...)
Angles are in degrees.

endheader
time	pelvis_tilt	pelvis_list	pelvis_rotation	pelvis_tx	pelvis_ty	pelvis_tz	hip_flexion_r	hip_adduction_r	hip_rotation_r	knee_angle_r	knee_angle_r_beta	ankle_angle_r	subtalar_angle_r	mtp_angle_r	hip_flexion_l	hip_adduction_l	hip_rotation_l	knee_angle_l	knee_angle_l_beta	ankle_angle_l	subtalar_angle_l	mtp_angle_l	lumbar_extension	lumbar_bending	lumbar_rotation	arm_flex_r	arm_add_r	arm_rot_r	elbow_flex_r	pro_sup_r	wrist_flex_r	wrist_dev_r	arm_flex_l	arm_add_l	arm_rot_l	elbow_flex_l	pro_sup_l	wrist_flex_l	wrist_dev_l
      0.48000000	     -3.99779983	      0.60069341	     -4.07872228	     -0.60800567	      0.87885516	     -1.00656544	     -1.34003934	     -0.00508455	    -12.59249264	    -18.01884116	     -0.31448811	     15.13372521	      3.25989309	     -5.24158221	     34.70778789	      5.36411679	     10.11077182	    -33.22322330	     -0.57985463	      6.54197995	     12.97087922	     15.36592148	     -4.69570082	     -2.82951715	      3.29473031	      7.52111343	    -12.13158619	     -3.65408840	     39.50847369	     89.95437384	      0.00000000	      0.00000000	     -3.36306929	      4.37889966	     33.07832095	     21.86019181	     89.95437384	      0.00000000	      0.00000000
      0.49000000	     -4.10201330	      0.36835003	     -4.32410226	     -0.59893579	      0.87787830	     -1.00683273	     -1.88167602	      0.10479587	    -12.66456611	    -18.01224991	     -0.31437307	     14.94033083	      3.61937081	     -5.83725434	     34.78530325	      5.96261371	     10.85899498	    -31.03735397	     -0.54170402	      6.43110034	     11.29901893	     13.92429841	     -4.62089159	     -2.68707242	      3.52867414	      7.68173865	    -12.25293075	     -3.68164345	     40.01640645	     89.95437384	      0.00000000	      0.00000000	     -3.62599140	      4.33765032	     33.09840648	     21.73626778	     89.95437384	      0.00000000	      0.00000000
      0.50000000	     -4.28209746	      0.18349929	     -4.58987533	     -0.58958483	      0.87661575	     -1.00732827	     -2.25585888	      0.03934948	    -13.15414680	    -18.11031376	     -0.31608460	     14.26187972	      4.03092546	    -11.31302127	     34.91454554	      6.51701189	     11.77500306	    -28.95477863	     -0.50535622	      4.73361993	     11.12042425	      0.88304230	     -4.41291663	     -2.55514144	      3.75844574	      7.79167759	    -12.44043497	     -3.52591179	     40.51863190	     89.95437384	      0.00000000	      0.00000000	     -3.93875628	      4.31054098	     33.01395480	     21.60912980	     89.95437384	      0.00000000	      0.00000000
      0.51000000	     -4.54305802	     -0.06329473	     -4.79333958	     -0.58024137	      0.87532394	     -1.00802772	     -2.52799728	      0.12815979	    -13.12304500	    -18.38355469	     -0.32085356	     14.12838412	      4.05890824	    -11.18081097	     35.23552419	      6.96095742	     12.26245978	    -27.47322765	     -0.47949828	      4.83412000	     10.43972383	      0.80773364	     -4.12695888	     -2.36082367	      3.90751105	      7.88331039	    -12.59975724	     -3.41640975	     40.93615038	     89.95437384	      0.00000000	      0.00000000	     -4.28775004	      4.25703075	     32.97304802	     21.63441939	     89.95437384	      0.00000000	      0.00000000
      0.52000000	     -4.44634811	     -0.00124756	     -5.28449406	     -0.57026270	      0.87455834	     -1.00835757	     -3.12049352	     -0.19988023	    -12.88293974	    -18.72159214	     -0.32675342	     14.20737038	      4.45229909	    -11.03000631	     35.06081900	      7.51551699	     14.12627054	    -26.38750484	     -0.46054884	      4.53542209	      8.12231593	      0.28217946	     -4.14771957	     -2.55480739	      4.23117880	      7.94693960	    -12.66395820	     -3.27439084	     41.34555457	     89.95437384	      0.00000000	      0.00000000	     -4.56905769	      4.29641778	     32.94121937	     21.45184767	     89.95437384	      0.00000000	      0.00000000
      0.53000000	     -4.54146316	     -0.08766844	     -5.57751348	     -0.56037883	      0.87351890	     -1.00912912	     -3.50957286	     -0.34292141	    -12.61225721	    -19.10756135	     -0.33348986	     14.00927692	      4.65240426	    -10.83232231	     35.16680819	      7.88625653	     14.91994621	    -25.64422745	     -0.44757620	      4.49070184	      7.10507961	     -0.08110368	     -3.98424424	     -2.56967296	      4.45074875	      7.93834695	    -12.76746637	     -3.23827268	     41.72458139	     89.95437384	      0.00000000	      0.00000000	     -4.85577424	      4.30259785	     32.81079320	     21.42228808	     89.95437384	      0.00000000	      0.00000000
      0.54000000	     -4.68997644	     -0.19960459	     -5.63447432	     -0.55036484	      0.87239161	     -1.01046512	     -3.82025396	     -0.44613687	    -12.45021071	    -19.52579535	     -0.34078942	     13.78994304	      4.55997927	    -10.67936775	     35.44145238	      8.04224628	     15.08048772	    -25.35042287	     -0.44244835	      4.53703958	      6.93072808	     -0.10832331	     -3.77754733	     -2.49925932	      4.28369863	      7.95753131	    -12.79635318	     -3.23805342	     42.03985614	     89.95437384	      0.00000000	      0.00000000	     -5.23374187	      4.27882285	     32.70952618	     21.44835290	     89.95437384	      0.00000000	      0.00000000
      0.55000000	     -4.80474349	     -0.23174269	     -5.73964648	     -0.53999161	      0.87132213	     -1.01162171	     -4.13620792	     -0.65537858	    -12.21115806	    -20.04353915	     -0.34982575	     13.46659251	      4.43001457	    -10.48443503	     35.62420943	      8.11144090	     14.92019213	    -25.38194144	     -0.44299845	      4.43809947	      6.73985340	     -0.11337001	     -3.54011139	     -2.56400113	      4.20377023	      7.87487028	    -12.79173092	     -3.21659311	     42.32520504	     89.95437384	      0.00000000	      0.00000000	     -5.63545978	      4.30166681	     32.59495162	     21.55593589	     89.95437384	      0.00000000	      0.00000000
